<svg width="60" height="60" viewBox="0 0 60 60" fill="none" xmlns="http://www.w3.org/2000/svg">
<g clip-path="url(#clip0_1_23)">
<path d="M55.6792 25.3396C55.6792 11.3437 44.3355 0 30.3396 0C16.3437 0 5 11.3437 5 25.3396C5 35.8959 11.4555 44.9375 20.6294 48.7457C18.3249 51.4935 16.0229 54.2388 13.7171 56.9865C13.1918 57.5988 13.1563 58.9482 14.0147 59.6131C14.8718 60.2878 16.1661 59.9216 16.6339 59.2592C18.9335 56.0853 21.2294 52.9065 23.5278 49.729C25.7 50.3339 27.9763 50.6804 30.3371 50.6804C32.6024 50.6804 34.7943 50.3547 36.8869 49.7951C38.8669 52.9322 40.8518 56.0657 42.8392 59.2041C43.2555 59.8849 44.5106 60.3184 45.3959 59.711C46.2886 59.1086 46.3265 57.7763 45.8478 57.1445C43.8102 54.3869 41.7678 51.6245 39.7302 48.8669C49.0743 45.1273 55.6792 36.0122 55.6792 25.3396ZM30.3396 45.7029C29.0931 45.7029 27.8784 45.5743 26.6943 45.3588C28.0045 43.5465 29.322 41.7282 30.631 39.9135C31.7808 41.7257 32.9257 43.5367 34.0731 45.3465C32.8596 45.5718 31.6143 45.7029 30.3396 45.7029ZM36.6518 44.6939C35.0539 42.5339 33.4584 40.3751 31.8653 38.2102C32.7518 36.9857 33.6347 35.7637 34.5225 34.5367C36.5355 35.4502 38.9869 34.5367 40.4318 32.3486C41.949 30.0563 40.4392 32.3486 40.4392 32.351C40.4514 32.3339 47.5669 21.5461 47.3318 21.3673C47.1041 21.1837 42.6751 27.2094 39.511 31.2624L38.84 30.7359C41.7322 26.4735 46.1135 20.4171 45.8894 20.2347C45.658 20.0559 41.0416 25.9347 37.7441 29.8812L37.0767 29.3571C40.0927 25.1963 44.6722 19.282 44.442 19.1033C44.2118 18.9196 39.4033 24.6478 35.9722 28.4951L35.3024 27.9686C38.4543 23.9106 43.2163 18.1482 42.9886 17.9657C42.7559 17.782 35.8767 25.3384 34.0278 27.3343C32.4053 29.078 31.9902 31.8404 33.3396 33.6024C32.4788 34.6322 31.6131 35.6584 30.7522 36.6869C29.7971 35.3927 28.8396 34.1033 27.8845 32.8053C30.3029 30.4935 30.3139 26.3963 27.8184 23.4673C25.198 20.3265 20.0661 17.0755 17.398 18.7922C14.8351 20.6608 16.002 26.6241 17.9845 30.1996C19.8188 33.5841 23.638 35.0547 26.671 33.6343C27.6237 35.1367 28.5739 36.6404 29.5278 38.1453C27.7008 40.3286 25.8739 42.5069 24.0445 44.6878C15.8869 42.0318 9.98857 34.3763 9.98857 25.3359C9.98857 14.0914 19.1037 4.97143 30.3543 4.97143C41.6049 4.97143 50.7114 14.0902 50.7114 25.3359C50.7029 34.3788 44.8082 42.0343 36.6518 44.6939Z" fill="#0B889E" fill-opacity="0.77"/>
</g>
<defs>
<clipPath id="clip0_1_23">
<rect width="60" height="60" fill="white"/>
</clipPath>
</defs>
</svg>
